<?xml version="1.0" standalone="no"?>
<!DOCTYPE svg PUBLIC "-//W3C//DTD SVG 1.1//EN" "http://www.w3.org/Graphics/SVG/1.1/DTD/svg11.dtd" >
<svg xmlns="http://www.w3.org/2000/svg">
<metadata>
This is a custom SVG webfont generated by Fontspring.
</metadata>
<defs>
<font id="webfontLtlWo4vw" horiz-adv-x="1679" >
<font-face units-per-em="2048" ascent="1536" descent="-512" />
<missing-glyph horiz-adv-x="512" />
<glyph unicode=" "  horiz-adv-x="512" />
<glyph unicode="&#x09;" horiz-adv-x="512" />
<glyph unicode="&#xa0;" horiz-adv-x="512" />
<glyph unicode="!" horiz-adv-x="602" d="M117 1464h368l-32 -1011h-303zM139 0v307h324v-307h-324z" />
<glyph unicode="&#x22;" horiz-adv-x="849" d="M104 1004v491h250v-491h-250zM496 1004v491h249v-491h-249z" />
<glyph unicode="#" horiz-adv-x="1441" d="M66 369l40 245h207l35 195h-203l41 246h203l72 409h274l-71 -409h221l71 409h275l-72 -409h215l-41 -246h-215l-35 -195h211l-41 -245h-211l-63 -369h-274l63 369h-221l-64 -369h-274l63 369h-206zM588 614h221l35 195h-221z" />
<glyph unicode="$" horiz-adv-x="1181" d="M63 215l181 252l55 -42t127 -68t168 -42q68 0 115 32t47 87q0 37 -37 67.5t-95.5 54.5t-129 49.5t-142 61t-130 81t-95.5 118t-37 164.5q0 156 109.5 269.5t281.5 146.5v223h224v-217q111 -12 205 -52t130 -73l39 -35l-143 -272q-18 14 -49 35.5t-116 57.5t-157 36 q-74 0 -119.5 -27.5t-45.5 -85.5q0 -41 36.5 -72.5t95 -55t129 -48t142.5 -58.5t130 -77t95 -112.5t37 -157.5q0 -162 -109.5 -287t-299.5 -154v-217h-224v217q-76 10 -146.5 35t-117.5 52.5t-84 53t-53 42.5z" />
<glyph unicode="%" horiz-adv-x="1748" d="M68 1135q0 145 108.5 249.5t262 104.5t262 -104.5t108.5 -249.5q0 -147 -108.5 -250t-262.5 -103q-156 0 -263 103t-107 250zM150 0l1130 1464h311l-1130 -1464h-311zM326 1137q0 -45 32.5 -77t79.5 -32t80 32t33 77q0 43 -34 74.5t-79 31.5t-78.5 -31.5t-33.5 -74.5z M942 328q0 145 108.5 249.5t262 104.5t262 -104.5t108.5 -249.5q0 -147 -108.5 -250t-261.5 -103q-156 0 -263.5 103t-107.5 250zM1200 330q0 -45 33 -77t80 -32t79.5 32t32.5 77q0 43 -33.5 74.5t-78.5 31.5t-79 -31.5t-34 -74.5z" />
<glyph unicode="&#x26;" horiz-adv-x="1429" d="M70 420q0 119 69.5 215t184.5 139v4l-21 10q-12 6 -46 33t-59.5 59.5t-46 90t-20.5 123.5q0 199 145.5 297t352.5 98l217 -25l-82 -280q-37 8 -80 8q-82 0 -136 -39t-54 -111q0 -66 38.5 -109.5t110.5 -43.5h219v190h352v-190h183v-287h-183v-151q0 -203 -154.5 -339.5 t-420.5 -136.5q-256 0 -412.5 128.5t-156.5 316.5zM436 453q0 -74 56.5 -117t150.5 -43q100 0 159.5 49t59.5 129v131h-241q-78 0 -131.5 -36.5t-53.5 -112.5z" />
<glyph unicode="'" horiz-adv-x="464" d="M104 1004v491h256v-491h-256z" />
<glyph unicode="(" horiz-adv-x="718" d="M109 711q0 434 253 825h291q-231 -387 -231 -825q0 -465 231 -906h-291q-253 402 -253 906z" />
<glyph unicode=")" horiz-adv-x="718" d="M66 -195q231 440 231 906q0 438 -231 825h290q254 -391 254 -825q0 -504 -254 -906h-290z" />
<glyph unicode="*" horiz-adv-x="1003" d="M66 1034l94 293l209 -92l-23 229h311l-24 -229l211 94l96 -293l-227 -47v-4l155 -170l-250 -182l-114 198h-4l-113 -198l-250 180l154 170v4z" />
<glyph unicode="+" horiz-adv-x="1290" d="M86 455v266h420v457h278v-457h420v-266h-420v-455h-278v455h-420z" />
<glyph unicode="," horiz-adv-x="595" d="M14 -227l154 567h338l-232 -567h-260z" />
<glyph unicode="-" horiz-adv-x="925" d="M141 434v307h643v-307h-643z" />
<glyph unicode="." horiz-adv-x="581" d="M123 0v336h336v-336h-336z" />
<glyph unicode="/" horiz-adv-x="950" d="M66 -86l524 1622h295l-525 -1622h-294z" />
<glyph unicode="0" horiz-adv-x="1286" d="M92 735q0 164 29 296t90 237.5t171 163t261.5 57.5t261 -57.5t171 -163t90 -237.5t28.5 -296t-28.5 -297t-90 -239.5t-171 -165t-261 -58.5t-261.5 58.5t-171 165t-90 239.5t-29 297zM461 735q0 -442 182 -442t182 442q0 436 -182 436t-182 -436z" />
<glyph unicode="1" horiz-adv-x="1110" d="M57 1094l396 370h309v-1177h313v-287h-975v287h312v631l2 112h-4q-18 -41 -58 -78l-88 -80z" />
<glyph unicode="2" horiz-adv-x="1245" d="M76 158q0 127 49 234.5t121.5 175t157.5 131t158 108.5t122 100.5t49 112.5q0 82 -45 116.5t-113 34.5q-121 0 -223 -149l-12 -18l-248 170l18 33q11 22 55 76t97 96t146.5 76t199.5 34q201 0 352.5 -116t151.5 -333q0 -119 -64.5 -219t-158.5 -167.5t-187.5 -125 t-161 -119t-69.5 -122.5h369v174h307v-461h-1055q-16 92 -16 158z" />
<glyph unicode="3" horiz-adv-x="1210" d="M70 168l166 256l43 -36q27 -22 107.5 -58.5t156.5 -36.5q96 0 152.5 47t56.5 119q0 76 -60.5 121t-171.5 45q-23 0 -71 -4l-76 163l256 326q33 39 69 70v4q-51 -6 -92 -6h-190v-154h-307v440h966v-254l-274 -336q147 -35 234 -142t87 -257q0 -205 -143 -352.5 t-410 -147.5q-92 0 -177 19.5t-141 48.5t-99 57.5t-62 46.5z" />
<glyph unicode="4" horiz-adv-x="1294" d="M41 354v217l565 893h438v-833h175v-277h-175v-354h-354v354h-649zM397 631h293v354l15 152h-9q-25 -74 -63 -136l-236 -366v-4z" />
<glyph unicode="5" horiz-adv-x="1210" d="M63 162l158 262q16 -14 44 -35.5t111 -58.5t161 -37q96 0 160.5 50t64.5 136q0 80 -61.5 130t-180.5 50q-135 0 -211 -53l-190 72l59 786h858v-440h-307v154h-240l-12 -191l-8 -57h4q41 14 131 14q248 0 387 -131t139 -332q0 -219 -157.5 -362.5t-411.5 -143.5 q-141 0 -265 47.5t-177 92.5z" />
<glyph unicode="6" horiz-adv-x="1263" d="M84 659q0 164 46 311.5t133 264.5t226.5 185.5t309.5 68.5q84 0 161.5 -15.5t114.5 -31.5l37 -17l-94 -297q-96 43 -205 43q-123 0 -203 -68.5t-116 -182.5h4q78 51 221 51q215 0 349 -150.5t134 -345.5q0 -199 -146.5 -349.5t-379.5 -150.5q-248 0 -420 178t-172 506z M453 553q0 -96 66.5 -178t156.5 -82q70 0 114 51t44 133q0 86 -59.5 145.5t-188.5 59.5q-133 0 -133 -129z" />
<glyph unicode="7" horiz-adv-x="1163" d="M70 1024v440h1063v-250l-615 -1214h-373l547 1090q14 27 29 49l20 32l9 9v4q-45 -6 -107 -6h-266v-154h-307z" />
<glyph unicode="8" horiz-adv-x="1257" d="M80 418q0 201 211 364q-154 119 -154 289t126 294t362 124q219 0 363.5 -110.5t144.5 -297.5q0 -178 -152 -346q190 -121 190 -317q0 -178 -144 -310.5t-400 -132.5q-254 0 -400.5 132.5t-146.5 310.5zM438 459q0 -78 53.5 -127t139.5 -49q76 0 125 39.5t49 107.5 q0 59 -52.5 96t-191.5 97l-39 16q-84 -88 -84 -180zM487 1063q0 -70 57.5 -111t188.5 -94q53 84 53 176q0 147 -157 148q-142 0 -142 -119z" />
<glyph unicode="9" horiz-adv-x="1265" d="M63 989q0 199 146.5 349.5t380.5 150.5q248 0 420 -178t172 -506q0 -162 -46 -308.5t-132 -264t-225.5 -187.5t-313.5 -70q-84 0 -164 16.5t-117 33.5l-37 14l95 297q98 -43 209 -43q246 0 323 258h-4q-74 -51 -223 -51q-215 0 -349.5 148t-134.5 341zM432 989 q0 -84 57.5 -142.5t180.5 -58.5q143 0 143 136q0 100 -70.5 173.5t-154.5 73.5q-66 0 -111 -53t-45 -129z" />
<glyph unicode=":" horiz-adv-x="622" d="M143 0v336h336v-336h-336zM143 719v336h336v-336h-336z" />
<glyph unicode=";" horiz-adv-x="628" d="M29 -227l133 567h340l-211 -567h-262zM172 719v336h324v-336h-324z" />
<glyph unicode="&#x3c;" horiz-adv-x="1290" d="M109 479v219l1032 457v-297l-676 -268v-4l676 -267v-296z" />
<glyph unicode="=" horiz-adv-x="1290" d="M127 219v266h1036v-266h-1036zM127 690v266h1036v-266h-1036z" />
<glyph unicode="&#x3e;" horiz-adv-x="1290" d="M150 23v296l675 267v4l-675 268v297l1032 -457v-219z" />
<glyph unicode="?" horiz-adv-x="1036" d="M53 1325l19 18q12 12 53 41t87 51.5t118.5 41t150.5 18.5q188 0 332.5 -107.5t144.5 -293.5q0 -92 -35.5 -169t-88 -125t-103.5 -90t-87 -88.5t-36 -95.5v-73h-340v102q0 76 33 140.5t80 106.5t95 80t81 81t33 90q0 51 -43 86t-103 35q-43 0 -92 -22t-76 -44l-26 -23z M276 0v307h324v-307h-324z" />
<glyph unicode="@" horiz-adv-x="1708" d="M59 491.5q0 327.5 231.5 548t602.5 220.5q291 0 436.5 -138.5t145.5 -353.5v-406h151v-243h-579q-217 0 -341 110.5t-124 262.5q0 147 121.5 253.5t343.5 106.5h100q0 61 -85 96t-185 35q-203 0 -337 -150.5t-134 -351.5q0 -199 138 -340t378 -141v-266q-393 0 -628 215 t-235 542.5zM932 494q0 -53 36 -92.5t99 -39.5h80v275h-76q-68 0 -103.5 -40t-35.5 -103z" />
<glyph unicode="A" horiz-adv-x="1499" d="M20 0v266h121l400 1198h417l400 -1198h121v-266h-613v266h127l-55 195h-377l-55 -195h127v-266h-613zM639 739h219l-76 271q-10 41 -17 78.5t-9 56.5l-2 18h-9q-4 -63 -28 -153z" />
<glyph unicode="B" horiz-adv-x="1447" d="M100 0v266h164v932h-164v266h684q174 0 269 -30q117 -41 186.5 -133.5t69.5 -217.5q0 -98 -45 -182t-129 -131v-4q123 -37 178 -128t55 -208q0 -158 -94 -266.5t-232 -143.5q-86 -20 -219 -20h-723zM631 287h211q39 0 67 12q41 18 64.5 62.5t23.5 97.5q0 68 -38.5 109.5 t-114.5 41.5h-213v-323zM631 897h180q63 0 96 40t33 101q0 98 -68 127q-33 12 -90 13h-151v-281z" />
<glyph unicode="C" horiz-adv-x="1531" d="M70 735q0 326 221 540t545 214q78 0 169 -13.5t191 -44t165.5 -92t65.5 -143.5v-231h-327v112q0 55 -77 80t-171 25q-182 0 -292.5 -113t-110.5 -313q0 -221 117.5 -347t305.5 -126q80 0 162 23.5t82 80.5v113h328v-236q0 -78 -63.5 -138t-161 -91t-192.5 -45.5 t-181 -14.5q-334 0 -555 218t-221 542z" />
<glyph unicode="D" horiz-adv-x="1613" d="M100 0v266h164v932h-164v266h645q195 0 302 -30q223 -63 357 -248t134 -453q0 -248 -117.5 -429t-322.5 -255q-135 -49 -350 -49h-648zM631 287h106q135 0 224 41q94 47 146 152.5t52 250.5q0 158 -60.5 264.5t-164.5 151.5q-74 31 -197 31h-106v-891z" />
<glyph unicode="E" horiz-adv-x="1349" d="M100 0v266h164v932h-164v266h1129v-432h-307v146h-291v-297h428v-287h-428v-307h315v145h307v-432h-1153z" />
<glyph unicode="F" horiz-adv-x="1243" d="M100 0v266h164v932h-164v266h1092v-432h-307v125h-254v-317h430v-287h-430v-287h184v-266h-715z" />
<glyph unicode="G" horiz-adv-x="1572" d="M70 741.5q0 329.5 220 538.5t564 209q139 0 271 -32t225.5 -99.5t93.5 -155.5v-237h-328v106q0 53 -68.5 82t-173.5 29q-201 0 -313 -109.5t-112 -314.5q0 -211 117.5 -343t328.5 -132q94 0 174 24.5t80 81.5v100h-236v267h564v-488q0 -78 -67 -137t-168 -92 t-202.5 -48.5t-189.5 -15.5q-338 0 -559 218.5t-221 548z" />
<glyph unicode="H" horiz-adv-x="1785" d="M100 0v266h164v932h-164v266h695v-266h-164v-328h524v328h-164v266h695v-266h-164v-932h164v-266h-695v266h164v318h-524v-318h164v-266h-695z" />
<glyph unicode="I" horiz-adv-x="894" d="M100 0v266h164v932h-164v266h695v-266h-164v-932h164v-266h-695z" />
<glyph unicode="J" horiz-adv-x="1191" d="M29 430v127h348v-98q0 -78 24.5 -122t100.5 -44q115 0 114 166v739h-184v266h694v-266h-143v-747q0 -227 -143.5 -351.5t-339.5 -124.5q-195 0 -333 116t-138 339z" />
<glyph unicode="K" horiz-adv-x="1538" d="M100 0v266h164v932h-164v266h637v-266h-106v-309h123l215 309h-111v266h602v-266h-123l-311 -420v-4q61 -29 113 -131l166 -330q23 -47 90 -47h63v-266h-250q-88 0 -133 25.5t-74 83.5l-219 446q-25 47 -102 47h-49v-336h153v-266h-684z" />
<glyph unicode="L" horiz-adv-x="1298" d="M102 0v266h164v912h-164v286h695v-286h-164v-891h315v215h307v-502h-1153z" />
<glyph unicode="M" horiz-adv-x="2019" d="M72 0v266h159l78 932h-164v266h576l246 -725q31 -90 41 -151h4q10 61 41 151l245 725h576v-266h-164l78 -932h160v-266h-664v266h146l-35 527q-1 13 -1 30t1 37q2 41 6 70l2 26h-8q-16 -94 -39 -155l-193 -535h-307l-192 535q-23 61 -39 155h-9q2 -12 4.5 -30.5 t4.5 -62.5q1 -22 1 -39.5t-1 -30.5l-35 -527h145v-266h-663z" />
<glyph unicode="N" horiz-adv-x="1759" d="M100 0v266h164v932h-164v266h535l459 -776q35 -59 61 -149h8q-12 98 -12 163v496h-172v266h702v-266h-163v-1198h-369l-461 772q-35 59 -61 150h-9q12 -98 13 -164v-492h172v-266h-703z" />
<glyph unicode="O" d="M70 741q0 317 219 532.5t550.5 215.5t551 -215t219.5 -533q0 -326 -219.5 -546t-551 -220t-550.5 220t-219 546zM449 741q0 -190 114.5 -319t276 -129t276.5 129t115 319q0 182 -115 306t-276.5 124t-276 -124t-114.5 -306z" />
<glyph unicode="P" horiz-adv-x="1394" d="M100 0v266h164v932h-164v266h729q162 0 246 -32q129 -49 206 -174t77 -287t-79 -292t-210 -175q-92 -31 -229 -31h-209v-207h164v-266h-695zM631 760h155q74 0 129 31q78 51 78 180q0 125 -71 174q-51 33 -129 33h-162v-418z" />
<glyph unicode="Q" horiz-adv-x="1693" d="M70 737q0 322 218 537t558 215q332 0 551 -204t219 -523q0 -252 -156 -453l158 -127l-203 -227l-153 145q-176 -125 -418 -125q-336 0 -555 219t-219 543zM449 737.5q0 -188.5 115.5 -316.5t281.5 -128q100 0 162 39l-193 178l197 223l194 -186q41 98 41 198 q0 178 -116.5 302t-284.5 124t-282.5 -122.5t-114.5 -311z" />
<glyph unicode="R" horiz-adv-x="1515" d="M100 0v266h164v932h-164v266h662q195 0 293 -28q135 -41 214 -147.5t79 -264.5q0 -274 -238 -401v-5q57 -25 90 -88l113 -217q25 -47 94 -47h51v-266h-241q-88 0 -132.5 23.5t-74.5 85.5l-179 342q-18 37 -44.5 50t-81.5 13h-74v-248h153v-266h-684zM631 801h166 q186 0 186 190q0 123 -80 162q-49 25 -141 25h-131v-377z" />
<glyph unicode="S" horiz-adv-x="1265" d="M82 332v188h328v-108q0 -55 60 -87t151 -32q88 0 142 30.5t54 88.5q0 27 -14.5 50t-32.5 39.5t-54 34t-63 27.5l-75 29l-76 29q-88 33 -146.5 64.5t-119 81.5t-90 124t-29.5 170q0 117 45 203t121.5 134t166 69.5t193.5 21.5q129 0 239.5 -31t184.5 -95.5t74 -154.5v-217 h-328v92q0 41 -49 64.5t-121 23.5q-158 0 -158 -100q0 -37 18.5 -64.5t61.5 -51t76 -38t98 -36.5q82 -29 134.5 -50.5t118 -60.5t103.5 -82t64.5 -108.5t26.5 -145.5q0 -121 -48 -212t-131 -143t-180.5 -78t-205.5 -26q-219 0 -379 94.5t-160 262.5z" />
<glyph unicode="T" horiz-adv-x="1423" d="M47 971v493h1329v-493h-307v207h-174v-912h164v-266h-694v266h163v912h-174v-207h-307z" />
<glyph unicode="U" d="M55 1198v266h695v-266h-164v-639q0 -98 37 -162q61 -104 219 -104q147 0 213 102q39 63 39 164v639h-164v266h694v-266h-164v-639q0 -231 -121 -381q-82 -100 -215 -151.5t-284 -51.5q-156 0 -287 52.5t-211 144.5q-123 141 -123 387v639h-164z" />
<glyph unicode="V" horiz-adv-x="1499" d="M20 1198v266h648v-266h-144l193 -643q10 -33 17 -73t9 -64l2 -23h9q6 88 28 160l193 643h-144v266h648v-266h-123l-418 -1198h-377l-418 1198h-123z" />
<glyph unicode="W" horiz-adv-x="2113" d="M25 1198v266h649v-266h-170l135 -649q14 -72 18 -154h9q6 82 24 154l225 915h283l225 -915q8 -33 14.5 -71t8.5 -60l2 -23h8q4 82 19 154l135 649h-170v266h649v-266h-123l-291 -1198h-403l-187 750q-18 72 -24 161h-8q-6 -90 -25 -161l-186 -750h-404l-291 1198h-122z " />
<glyph unicode="X" horiz-adv-x="1484" d="M70 0v266h116l361 482l-344 450h-123v266h622v-266h-127l140 -184l47 -68h4l4 8q6 6 17.5 24.5t23.5 35.5l135 184h-123v266h590v-266h-117l-358 -475l352 -457h119v-266h-623v266h132l-148 193l-47 69h-4q-2 0 -7 -8l-17 -26l-21 -35l-137 -193h127v-266h-594z" />
<glyph unicode="Y" horiz-adv-x="1374" d="M20 1198v266h607v-266h-123l149 -270l33 -72h4q10 31 33 72l149 270h-122v266h604v-266h-125l-359 -598v-334h164v-266h-694v266h164v334l-359 598h-125z" />
<glyph unicode="Z" horiz-adv-x="1351" d="M100 0v225l625 885q29 41 66 70v4q-47 -6 -89 -6h-286v-207h-307v493h1124v-221l-627 -889q-29 -41 -65 -69v-4q47 6 88 6h321v215h307v-502h-1157z" />
<glyph unicode="[" horiz-adv-x="737" d="M168 -195v1731h504v-246h-209v-1239h209v-246h-504z" />
<glyph unicode="\" horiz-adv-x="950" d="M66 1536h294l525 -1622h-295z" />
<glyph unicode="]" horiz-adv-x="737" d="M66 51h208v1239h-208v246h503v-1731h-503v246z" />
<glyph unicode="^" horiz-adv-x="1290" d="M119 494l416 970h219l415 -970h-297l-229 614l-227 -614h-297z" />
<glyph unicode="_" horiz-adv-x="1200" d="M-10 0h1220v-266h-1220v266z" />
<glyph unicode="`" horiz-adv-x="991" d="M190 1866h363l238 -307h-291z" />
<glyph unicode="a" horiz-adv-x="1193" d="M47 301q0 109 62.5 184.5t161 109.5t180 47t159.5 13h64v31q0 117 -150 117q-63 0 -136 -24.5t-114 -49.5l-41 -27l-122 240l21 15.5t58.5 33t94.5 42t123.5 32.5t148.5 14q229 0 350 -110.5t121 -319.5v-348q0 -45 45 -45h78v-256h-305q-72 0 -106.5 33t-34.5 78v6l4 33 h-4q-4 -6 -11.5 -18.5t-34 -42.5t-59.5 -53.5t-88 -42t-119 -18.5q-145 0 -245.5 86t-100.5 240zM403 326q0 -41 26 -68t69 -27q66 0 123 65.5t57 135.5v25h-33q-98 0 -170 -32.5t-72 -98.5z" />
<glyph unicode="b" horiz-adv-x="1314" d="M2 1208v256h498v-407l-4 -90h4q10 12 31.5 30.5t96 50t156.5 31.5q215 0 345.5 -152.5t130.5 -400t-139.5 -399.5t-352.5 -152q-186 0 -279 115l-10 14h-4q2 -37 2 -69v-35h-332v1208h-143zM489 520q0 -102 54.5 -177t152.5 -75q88 0 147.5 67.5t59.5 184.5t-57.5 188.5 t-149.5 71.5q-88 0 -147.5 -65.5t-59.5 -194.5z" />
<glyph unicode="c" horiz-adv-x="1161" d="M51 524q0 233 163 394t415 161q115 0 215 -25.5t175 -88t75 -154.5v-168h-301v64q0 37 -43 57t-107 20q-119 0 -177 -67.5t-58 -179.5q0 -133 74.5 -201t191.5 -68q170 0 317 117l119 -248q-84 -76 -207 -119t-252 -43q-246 0 -423 150.5t-177 398.5z" />
<glyph unicode="d" horiz-adv-x="1357" d="M55 526q0 250 134.5 401.5t353.5 151.5q182 0 264 -96l6 -8h4q-2 29 -2 67v166h-143v256h497v-1163q0 -45 45 -45h78v-256h-305q-72 0 -106.5 33t-34.5 78v6l4 33h-4q-4 -6 -10.5 -18.5t-34 -42.5t-61 -53.5t-92 -42t-128.5 -18.5q-209 0 -337 152.5t-128 398.5zM412 526 q0 -115 57 -186.5t147 -71.5q86 0 147.5 64.5t61.5 185.5q0 111 -53 186.5t-149 75.5q-90 0 -150.5 -67.5t-60.5 -186.5z" />
<glyph unicode="e" horiz-adv-x="1150" d="M51 528q0 238 149.5 394.5t399.5 156.5q231 0 361.5 -142t130.5 -368l-9 -106h-669q18 -96 86.5 -145.5t158.5 -49.5q70 0 144 25.5t115 50.5l38 25l129 -246q-18 -16 -55 -41t-154.5 -66t-244.5 -41q-268 0 -424 164t-156 389zM422 657h303q0 63 -38 109.5t-95 46.5 q-135 0 -170 -156z" />
<glyph unicode="f" horiz-adv-x="845" d="M76 799v256h143v43q0 98 34 173t83 114.5t116.5 64.5t122 32t111.5 7l125 -8v-279q-27 6 -86 6q-152 0 -152 -102v-51h218v-256h-218v-543h156v-256h-643v256h133v543h-143z" />
<glyph unicode="g" horiz-adv-x="1339" d="M57 561q0 217 123 367.5t350 150.5q92 0 179.5 -34.5t128.5 -102.5h4q-2 16 -2 27q0 35 31.5 60.5t86.5 25.5h320v-256h-80q-45 0 -45 -39v-664q0 -139 -51 -243.5t-139.5 -165t-189.5 -89t-216 -28.5q-219 0 -399 94l100 258q131 -68 297 -67q244 0 244 213v34l2 39h-4 q-92 -111 -265 -110q-225 0 -350 155.5t-125 374.5zM414 573q0 -106 51 -176.5t151 -70.5q82 0 136.5 52t54.5 179q0 227 -205 227q-90 0 -139 -58.5t-49 -152.5z" />
<glyph unicode="h" horiz-adv-x="1421" d="M47 1208v256h498v-463l-4 -90h4q45 78 131 123t190 45q379 0 379 -395v-428h133v-256h-487v618q0 139 -117 140q-111 0 -170 -84t-59 -207v-211h133v-256h-621v256h133v952h-143z" />
<glyph unicode="i" horiz-adv-x="763" d="M76 799v256h497v-799h134v-256h-621v256h133v543h-143zM223 1188v276h346v-276h-346z" />
<glyph unicode="j" horiz-adv-x="696" d="M-39 -143q18 -2 45 -2q190 0 191 145v799h-146v256h500v-1071q0 -100 -37 -178t-90 -120t-125 -69t-129 -35t-115 -8l-94 6v277zM201 1188v276h346v-276h-346z" />
<glyph unicode="k" horiz-adv-x="1298" d="M47 1208v256h498v-800h121l110 135h-100v256h549v-256h-129l-183 -221v-5q45 -23 84 -94l105 -188q20 -35 78 -35h51v-256h-258q-59 0 -92 15.5t-60 64.5l-162 299q-18 35 -84 35h-30v-158h76v-256h-564v256h133v952h-143z" />
<glyph unicode="l" horiz-adv-x="686" d="M-14 1208v256h497v-1054q0 -78 19.5 -107t79.5 -29l43 2v-280q-49 -6 -107 -6q-82 0 -142.5 13t-120.5 52t-93 123t-33 211v819h-143z" />
<glyph unicode="m" horiz-adv-x="2029" d="M76 799v256h334q72 0 109.5 -32t37.5 -87v-35l-2 -24h4q131 203 334 202q205 0 274 -198h4q45 88 138.5 143t210.5 55q147 0 239 -95t92 -300v-428h134v-256h-488v625q0 133 -82 133q-203 0 -203 -322v-180h134v-256h-488v625q0 133 -82 133q-203 0 -203 -342v-160h134 v-256h-621v256h133v500q0 43 -45 43h-98z" />
<glyph unicode="n" horiz-adv-x="1449" d="M76 799v256h336q72 0 108.5 -32t36.5 -87v-35l-2 -24h4l11 21q7 13 38 49t68 62.5t102.5 48t139.5 21.5q356 0 356 -395v-428h133v-256h-487v618q0 139 -119 140q-111 0 -169.5 -94.5t-58.5 -217.5v-190h134v-256h-621v256h133v498q0 45 -45 45h-98z" />
<glyph unicode="o" horiz-adv-x="1298" d="M51 524.5q0 243.5 172 399t424 155.5q254 0 427 -154.5t173 -400.5q0 -244 -172 -396.5t-426 -152.5t-426 153t-172 396.5zM410 524q0 -115 69.5 -184.5t170 -69.5t170 70t69.5 184q0 117 -69.5 188.5t-170 71.5t-170 -71.5t-69.5 -188.5z" />
<glyph unicode="p" horiz-adv-x="1366" d="M53 799v256h326q70 0 102.5 -27t32.5 -61v-6l-2 -27h4q4 6 12.5 15t37 35t61 45.5t89 34.5t120.5 15q215 0 345 -152.5t130 -400t-139.5 -399.5t-352.5 -152q-160 0 -264 97l-4 4h-4q4 -37 4 -90v-140h133v-256h-621v256h134v908q0 45 -45 45h-99zM541 520 q0 -102 54 -177t153 -75q88 0 147 67.5t59 184.5t-57 188.5t-149 71.5q-88 0 -147.5 -65.5t-59.5 -194.5z" />
<glyph unicode="q" horiz-adv-x="1314" d="M55 528.5q0 247.5 134.5 399t347.5 151.5q209 0 301 -123h4q-4 23 -4 58v41h331v-1209h134v-256h-621v256h133v158l4 90h-4q-10 -12 -30.5 -32.5t-94.5 -53.5t-160 -33q-215 0 -345 153t-130 400.5zM412 528.5q0 -116.5 57 -188.5t149 -72q88 0 147.5 65.5t59.5 194.5 q0 102 -54 177t-153 75q-88 0 -147 -67.5t-59 -184z" />
<glyph unicode="r" horiz-adv-x="974" d="M80 0v256h143v498q0 45 -45 45h-98v256h334q150 0 149 -135v-56l-4 -53h4q35 111 128 186.5t208 75.5l41 -4v-348q-29 6 -72 6q-143 0 -216.5 -84t-73.5 -233v-154h143v-256h-641z" />
<glyph unicode="s" horiz-adv-x="1042" d="M55 231v142h297v-54q0 -76 154 -75q129 0 129 61q0 14 -4 24.5t-14.5 19.5t-20.5 15.5t-30.5 14.5t-37.5 13l-47 15q-31 9 -53 17q-72 25 -120 46.5t-103 60t-84 97t-29 134.5q0 117 74 191.5t169 100t210 25.5q66 0 132 -12t128.5 -37.5t102.5 -72t40 -107.5v-143h-297 v47q0 57 -106 57q-100 0 -101 -53q0 -43 45.5 -66.5t139.5 -48.5q76 -20 126 -39.5t110.5 -56.5t91 -95.5t30.5 -136.5q0 -168 -138 -254t-343 -86q-164 0 -307.5 67.5t-143.5 188.5z" />
<glyph unicode="t" horiz-adv-x="835" d="M39 799v256h154v284h344v-284h221v-256h-221v-373q0 -145 188 -145l47 2v-287q-39 -6 -96 -6q-49 0 -95 5t-106.5 19.5t-109 43t-91.5 70.5t-67.5 109.5t-24.5 151.5v410h-143z" />
<glyph unicode="u" horiz-adv-x="1421" d="M43 799v256h498v-629q0 -139 116 -139q100 0 160 97t60 224v191h-144v256h498v-754q0 -45 45 -45h88v-256h-326q-72 0 -108.5 31.5t-36.5 87.5v28l2 31h-4l-11 -21q-7 -13 -37 -49t-67 -63t-102.5 -48.5t-141.5 -21.5q-154 0 -250 93.5t-96 302.5v428h-143z" />
<glyph unicode="v" horiz-adv-x="1277" d="M18 799v256h562v-256h-95l121 -381q10 -29 17.5 -64t9.5 -55l2 -20h8q6 76 29 139l121 381h-95v256h562v-256h-119l-293 -799h-418l-293 799h-119z" />
<glyph unicode="w" horiz-adv-x="1785" d="M20 799v256h562v-256h-105l78 -367l16 -139h9q2 78 16 139l145 623h303l146 -623q6 -27 10 -61.5t4 -55.5l2 -22h8q4 78 17 139l78 367h-105v256h561v-256h-120l-201 -799h-410l-119 487q-16 66 -18 140h-8q-2 -74 -19 -140l-118 -487h-410l-201 799h-121z" />
<glyph unicode="x" horiz-adv-x="1191" d="M68 0v256h137l205 276l-195 267h-147v256h370l125 -205l45 -84h4q20 45 45 84l129 205h336v-256h-125l-192 -258l215 -285h102v-256h-325l-148 225l-45 84h-4q-20 -45 -45 -84l-139 -225h-348z" />
<glyph unicode="y" horiz-adv-x="1284" d="M18 799v256h580v-256h-102l129 -391q8 -29 14 -63t8 -54l2 -21h8q10 74 33 138l125 391h-96v256h547v-256h-109l-340 -891q-129 -338 -491 -338q-82 0 -157 20.5t-110 40.5l-34 21l108 252q61 -49 174 -49q137 0 174 86l4 10l-348 848h-119z" />
<glyph unicode="z" horiz-adv-x="1130" d="M84 0v217l463 522q14 16 30.5 30.5l24.5 21.5l10 8v4q-53 -4 -94 -4h-137v-127h-297v383h942v-219l-455 -521q-14 -16 -30.5 -30.5t-24.5 -22.5l-10 -6v-4q53 4 94 4h160v127h297v-383h-973z" />
<glyph unicode="{" horiz-adv-x="788" d="M55 524v307q6 0 18.5 1.5t42 12.5t53.5 29.5t42 60.5t18 99v180q0 102 42 174t111 104t129 43t126 11l88 -4v-254q-23 4 -51 4q-150 0 -150 -110v-240q0 -59 -17.5 -107.5t-43 -75t-51 -46t-43.5 -25.5l-17 -6v-4l19 -6q12 -4 41.5 -23.5t52 -45t41 -75t18.5 -108.5v-260 q0 -111 150 -111l51 4v-254q-37 -4 -88 -4q-66 0 -126 11.5t-129 43t-111 103.5t-42 174v201q0 55 -18 95t-43 58.5t-50.5 29.5t-43.5 13h-19z" />
<glyph unicode="|" horiz-adv-x="622" d="M164 -338v1980h295v-1980h-295z" />
<glyph unicode="}" horiz-adv-x="788" d="M63 53q23 -4 52 -4q150 0 149 111v260q0 59 17.5 108.5t43 76t51 44t42.5 23.5l18 6v4q-6 2 -18 7t-42 24.5t-52.5 46t-41 75t-18.5 107.5v240q0 111 -149 110l-52 -4v254q37 4 89 4q66 0 126 -11t128.5 -43t110.5 -103.5t42 -174.5v-180q0 -162 133 -196l41 -7v-307 q-6 0 -18.5 -1t-42 -12t-53 -29.5t-42 -58.5t-18.5 -95v-201q0 -102 -42 -174t-110.5 -103.5t-129 -43t-125.5 -11.5l-89 4v254z" />
<glyph unicode="~" horiz-adv-x="1288" d="M100 391q0 416 357 416q63 0 119.5 -25.5t88 -56.5t70.5 -56.5t74 -25.5q51 0 82 40t31 116h272q0 -416 -354 -416q-63 0 -119.5 25.5t-88.5 56.5t-72 56.5t-75 25.5q-49 0 -79.5 -40t-30.5 -116h-275z" />
<glyph unicode="&#xa1;" horiz-adv-x="598" d="M115 -410l32 1010h304l32 -1010h-368zM137 745v308h324v-308h-324z" />
<glyph unicode="&#xa2;" horiz-adv-x="1187" d="M61 733q0 213 126 375t311 205v174h225v-174q139 -31 244.5 -124t150.5 -228l-315 -123q-23 66 -71 109.5t-114 43.5q-76 0 -138 -73.5t-62 -184.5q0 -123 58.5 -190.5t141.5 -67.5q66 0 115 44t70 110l315 -123q-43 -123 -146.5 -227.5t-248.5 -124.5v-179h-225v179 q-186 43 -311.5 203.5t-125.5 375.5z" />
<glyph unicode="&#xa3;" horiz-adv-x="1300" d="M80 0v276h164v336h-150v230h150v205q0 195 141 318.5t358 123.5q106 0 207 -40t148 -81l47 -39l-187 -237q-106 80 -204 79q-59 0 -101.5 -36.5t-42.5 -98.5v-194h318v-230h-318v-325h314v215h307v-502h-1151z" />
<glyph unicode="&#xa5;" horiz-adv-x="1351" d="M66 1464h411l109 -293q49 -135 88 -272h4q39 137 88 272l108 293h412l-282 -571h190v-197h-287l-49 -100v-57h336v-197h-336v-342h-366v342h-334v197h334v57l-50 100h-284v197h188z" />
<glyph unicode="&#xa7;" horiz-adv-x="1073" d="M66 31l141 235q14 -12 38.5 -30.5t97.5 -50t144 -31.5q201 0 201 192q0 66 -26 158l-140 491h269l151 -559q20 -76 21 -153q0 -182 -122 -296t-352 -114q-238 0 -403 139zM113 1079q0 182 121.5 296t351.5 114q238 0 403 -139l21 -19l-152 -221q-12 10 -34.5 26.5 t-93.5 43t-140 26.5q-201 0 -201 -170q0 -61 21 -137l147 -532h-268l-156 559q-20 75 -20 153z" />
<glyph unicode="&#xa8;" horiz-adv-x="993" d="M113 1579v287h268v-287h-268zM612 1579v287h269v-287h-269z" />
<glyph unicode="&#xa9;" horiz-adv-x="1613" d="M68 733.5q0 313.5 215 533.5t520 220q309 0 526 -220t217 -533.5t-217 -536t-526 -222.5q-303 0 -519 222.5t-216 536zM299 733q0 -229 145.5 -388t358.5 -159q217 0 365.5 159t148.5 388q0 227 -148.5 385t-365.5 158q-213 0 -358.5 -158t-145.5 -385zM455 727 q0 160 104.5 271.5t247.5 111.5q211 0 307 -180l25 -56l-205 -79l-11 27q-7 17 -37 45t-71 28q-47 0 -84 -47t-37 -121q0 -80 34 -124t87 -44q41 0 70.5 25.5t40.5 50.5l8 24l205 -79q-2 -10 -8.5 -25.5t-32 -56.5t-59 -72t-96 -56.5t-136.5 -25.5q-143 0 -247.5 111.5 t-104.5 271.5z" />
<glyph unicode="&#xaa;" horiz-adv-x="854" d="M109 993q0 223 370 224h10v16q0 74 -96 74q-78 0 -164 -56l-77 154l33 21q22 13 94.5 36t154.5 23q143 0 220 -74t77 -203v-409h-221v80h-4q-6 -10 -17.5 -25.5t-58.5 -42.5t-106 -27q-84 0 -149.5 58.5t-65.5 150.5zM115 549v174h624v-174h-624zM348 1008q0 -41 47 -41 q37 0 64.5 28.5t27.5 63.5v10h-20q-119 0 -119 -61z" />
<glyph unicode="&#xab;" horiz-adv-x="1335" d="M59 578l336 421h324l-336 -421l336 -420h-324zM592 578l336 421h323l-336 -421l336 -420h-323z" />
<glyph unicode="&#xac;" horiz-adv-x="1214" d="M66 690v266h1036v-686h-277v420h-759z" />
<glyph unicode="&#xad;" horiz-adv-x="925" d="M141 434v307h643v-307h-643z" />
<glyph unicode="&#xae;" horiz-adv-x="1613" d="M68 733.5q0 313.5 215 533.5t520 220q309 0 526 -220t217 -533.5t-217 -536t-526 -222.5q-303 0 -519 222.5t-216 536zM299 733q0 -229 145.5 -388t358.5 -159q217 0 365.5 159t148.5 388q0 227 -148.5 385t-365.5 158q-213 0 -358.5 -158t-145.5 -385zM537 383v711h333 q115 0 182.5 -63.5t67.5 -172.5q0 -76 -40 -124t-79 -58v-4q8 -6 27 -41l129 -248h-242l-100 242h-57v-242h-221zM758 772h55q82 0 82 86q0 84 -78 84h-59v-170z" />
<glyph unicode="&#xaf;" horiz-adv-x="993" d="M215 1602v229h563v-229h-563z" />
<glyph unicode="&#xb0;" horiz-adv-x="860" d="M59 1141q0 145 108.5 249.5t262.5 104.5t262.5 -104.5t108.5 -249.5q0 -147 -108.5 -250t-262.5 -103q-156 0 -263.5 103t-107.5 250zM317 1143q0 -45 33 -77t80 -32t80 32t33 77q0 43 -34 74.5t-79 31.5t-79 -31.5t-34 -74.5z" />
<glyph unicode="&#xb1;" horiz-adv-x="1290" d="M86 455v266h420v457h278v-457h420v-266h-420v-455h-278v455h-420zM106 -143h1078v-267h-1078v267z" />
<glyph unicode="&#xb2;" horiz-adv-x="819" d="M55 971q0 96 43 172t104.5 121t123 79.5t104.5 69.5t43 72q0 33 -26.5 51t-61.5 18q-84 -2 -149 -92l-170 146q4 8 13 20t41 43t68.5 55.5t97 44t126.5 19.5q137 0 229 -74t92 -203q0 -68 -28.5 -125t-72.5 -91.5t-96.5 -66.5t-97.5 -54.5t-77.5 -51t-38.5 -57.5h225v88 h198v-289h-677q-13 68 -13 105z" />
<glyph unicode="&#xb3;" horiz-adv-x="804" d="M57 985l125 174q8 -10 22.5 -24.5t63.5 -39t100.5 -24.5t81 24.5t29.5 61.5q0 74 -127 74h-63l-49 117l147 182q20 25 49 47v8q-37 -8 -69 -8h-95v-96h-198v288h637v-161l-181 -207q209 -45 209 -238q0 -127 -94 -222t-260 -95q-195 0 -315 125z" />
<glyph unicode="&#xb4;" horiz-adv-x="991" d="M201 1559l237 307h363l-309 -307h-291z" />
<glyph unicode="&#xb5;" horiz-adv-x="1290" d="M123 -410v1465h354v-619q0 -139 113 -139q109 0 166 83t57 208v467h354v-1055h-340v102l4 56h-6q-4 -8 -11 -20.5t-34.5 -43.5t-61.5 -55.5t-93.5 -44t-126.5 -19.5l-86 9h-4q16 -98 16 -181v-213h-301z" />
<glyph unicode="&#x3bc;" horiz-adv-x="1290" d="M123 -410v1465h354v-619q0 -139 113 -139q109 0 166 83t57 208v467h354v-1055h-340v102l4 56h-6q-4 -8 -11 -20.5t-34.5 -43.5t-61.5 -55.5t-93.5 -44t-126.5 -19.5l-86 9h-4q16 -98 16 -181v-213h-301z" />
<glyph unicode="&#xb6;" horiz-adv-x="1351" d="M47 981q0 205 139.5 344t337.5 139h731v-307h-485v-1259h-246v596q-199 0 -338 141t-139 346zM897 -102v1157h246v-1157h-246z" />
<glyph unicode="&#xb7;" horiz-adv-x="606" d="M141 436v336h324v-336h-324z" />
<glyph unicode="&#xb8;" horiz-adv-x="991" d="M285 -307q43 -16 100 -17q98 0 98 54q0 57 -114 57h-52l91 272l147 -34v-15l-39 -112q84 -4 139.5 -50.5t55.5 -126.5q0 -100 -84 -150t-201 -50l-141 18v154z" />
<glyph unicode="&#xb9;" horiz-adv-x="774" d="M39 1513l276 256h222v-702h204v-201h-665v201h203v313l8 62h-8q-10 -18 -29 -35l-64 -55z" />
<glyph unicode="&#xba;" horiz-adv-x="937" d="M96 1136.5q0 153.5 107.5 251t263.5 97.5q160 0 268.5 -97.5t108.5 -251t-108.5 -251t-266.5 -97.5t-265.5 97.5t-107.5 251zM123 549v174h692v-174h-692zM340 1137q0 -63 37 -100.5t92 -37.5t92 37t37 101q0 61 -38 100t-91 39t-91 -39t-38 -100z" />
<glyph unicode="&#xbb;" horiz-adv-x="1335" d="M84 158l336 420l-336 421h324l335 -421l-335 -420h-324zM616 158l336 420l-336 421h324l336 -421l-336 -420h-324z" />
<glyph unicode="&#xbc;" horiz-adv-x="2084" d="M68 1208l276 256h221v-702h205v-201h-666v201h203v313l8 62h-8q-10 -18 -28 -35l-64 -55zM580 0l688 1464h243l-688 -1464h-243zM1255 188v162l351 553h307v-526h108v-189h-108v-188h-254v188h-404zM1479 377h180v215l10 102h-8q-16 -55 -41 -94l-141 -219v-4z" />
<glyph unicode="&#xbd;" horiz-adv-x="2064" d="M57 1208l277 256h221v-702h205v-201h-666v201h203v313l8 62h-8q-10 -18 -29 -35l-63 -55zM578 0l688 1464h243l-688 -1464h-243zM1300 104q0 96 43 172t104.5 121t123 80t104.5 70t43 71q0 33 -26.5 51.5t-61.5 18.5q-84 -2 -149 -92l-170 145q4 8 13 20.5t41 43.5 t68.5 55.5t97 44t126.5 19.5q137 0 229 -74t92 -203q0 -68 -28.5 -125t-72.5 -92t-96 -66.5t-97.5 -54t-78 -51.5t-38.5 -57h225v88h199v-289h-678q-13 67 -13 104z" />
<glyph unicode="&#xbe;" horiz-adv-x="2082" d="M74 680l125 174q8 -10 22.5 -24.5t63.5 -39t100 -24.5t81 24.5t30 61.5q0 74 -127 74h-64l-49 116l147 183q20 25 50 47v8q-37 -8 -70 -8h-94v-96h-199v288h637v-161l-180 -207q209 -45 209 -238q0 -127 -94.5 -222t-260.5 -95q-195 0 -315 125zM580 0l688 1464h243 l-688 -1464h-243zM1255 188v162l351 553h307v-526h108v-189h-108v-188h-254v188h-404zM1479 377h180v215l10 102h-8q-16 -55 -41 -94l-141 -219v-4z" />
<glyph unicode="&#xbf;" horiz-adv-x="1036" d="M78 -29q0 92 36 169t87 125t103 90t88 88t36 96v63h340v-92q0 -76 -33 -140.5t-81 -106.5l-95 -80q-47 -38 -80 -81t-33 -90q0 -51 43 -86t103 -35q43 0 92 21.5t76 44.5l26 23l197 -240l-18 -19q-12 -12 -53.5 -40.5t-87.5 -51t-118.5 -41t-150.5 -18.5 q-188 0 -332.5 107.5t-144.5 293.5zM436 748v307h324v-307h-324z" />
<glyph unicode="&#xc0;" horiz-adv-x="1495" d="M18 0v266h121l400 1198h417l400 -1198h121v-266h-613v266h127l-55 195h-377l-55 -195h127v-266h-613zM328 1866h362l238 -307h-291zM637 739h219l-76 271q-10 41 -17 78.5t-9 56.5l-2 18h-9q-4 -63 -28 -153z" />
<glyph unicode="&#xc1;" horiz-adv-x="1499" d="M20 0v266h121l400 1198h417l400 -1198h121v-266h-613v266h127l-55 195h-377l-55 -195h127v-266h-613zM561 1559l238 307h362l-309 -307h-291zM639 739h219l-76 271q-10 41 -17 78.5t-9 56.5l-2 18h-9q-4 -63 -28 -153z" />
<glyph unicode="&#xc2;" horiz-adv-x="1499" d="M20 0v266h121l400 1198h417l400 -1198h121v-266h-613v266h127l-55 195h-377l-55 -195h127v-266h-613zM371 1559l202 307h345l202 -307h-276l-96 167h-5l-96 -167h-276zM639 739h219l-76 271q-10 41 -17 78.5t-9 56.5l-2 18h-9q-4 -63 -28 -153z" />
<glyph unicode="&#xc3;" horiz-adv-x="1499" d="M20 0v266h121l400 1198h417l400 -1198h121v-266h-613v266h127l-55 195h-377l-55 -195h127v-266h-613zM334 1559q0 313 262 313q59 0 106.5 -31t84 -61.5t67.5 -30.5q76 0 76 117h229q0 -313 -262 -314q-59 0 -106.5 31t-84 61.5t-67.5 30.5q-76 0 -76 -116h-229zM639 739 h219l-76 271q-10 41 -17 78.5t-9 56.5l-2 18h-9q-4 -63 -28 -153z" />
<glyph unicode="&#xc4;" horiz-adv-x="1499" d="M20 0v266h121l400 1198h417l400 -1198h121v-266h-613v266h127l-55 195h-377l-55 -195h127v-266h-613zM362 1579v287h269v-287h-269zM639 739h219l-76 271q-10 41 -17 78.5t-9 56.5l-2 18h-9q-4 -63 -28 -153zM862 1579v287h268v-287h-268z" />
<glyph unicode="&#xc5;" horiz-adv-x="1499" d="M20 0v266h121l400 1198h417l400 -1198h121v-266h-613v266h127l-55 195h-377l-55 -195h127v-266h-613zM506 1716q0 92 71.5 141.5t168 49.5t170 -49.5t73.5 -141.5q0 -90 -72.5 -138t-171.5 -48q-96 0 -167.5 48t-71.5 138zM639 739h219l-76 271q-10 41 -17 78.5t-9 56.5 l-2 18h-9q-4 -63 -28 -153zM672 1716q0 -35 20.5 -55.5t52.5 -20.5q35 0 56.5 20.5t21.5 55.5q0 37 -21.5 58.5t-56.5 21.5q-33 0 -53 -21.5t-20 -58.5z" />
<glyph unicode="&#xc6;" horiz-adv-x="2039" d="M23 0v266h110l389 932h-143v266h1540v-432h-287v146h-299v-297h418v-287h-418v-307h324v145h287v-432h-1143v266h166v334h-342l-129 -334h139v-266h-612zM729 868h238v310h-117z" />
<glyph unicode="&#xc7;" horiz-adv-x="1531" d="M70 735q0 326 221 540t545 214q78 0 169 -13.5t191 -44t165.5 -92t65.5 -143.5v-231h-327v112q0 55 -77 80t-171 25q-182 0 -292.5 -113t-110.5 -313q0 -221 117.5 -347t305.5 -126q80 0 162 23.5t82 80.5v113h328v-236q0 -74 -56.5 -132t-146.5 -89t-179 -47t-177 -21 l-27 -77q84 -4 139.5 -50.5t55.5 -126.5q0 -100 -84 -150t-201 -50l-141 18v154q43 -16 100 -17q98 0 98 54q0 57 -114 57h-52l64 197q-289 39 -471 248.5t-182 502.5z" />
<glyph unicode="&#xc8;" horiz-adv-x="1349" d="M100 0v266h164v932h-164v266h1129v-432h-307v146h-291v-297h428v-287h-428v-307h315v145h307v-432h-1153zM285 1866h362l238 -307h-291z" />
<glyph unicode="&#xc9;" horiz-adv-x="1349" d="M100 0v266h164v932h-164v266h1129v-432h-307v146h-291v-297h428v-287h-428v-307h315v145h307v-432h-1153zM516 1559l238 307h362l-309 -307h-291z" />
<glyph unicode="&#xca;" horiz-adv-x="1349" d="M100 0v266h164v932h-164v266h1129v-432h-307v146h-291v-297h428v-287h-428v-307h315v145h307v-432h-1153zM326 1559l202 307h344l203 -307h-276l-97 167h-4l-96 -167h-276z" />
<glyph unicode="&#xcb;" horiz-adv-x="1349" d="M100 0v266h164v932h-164v266h1129v-432h-307v146h-291v-297h428v-287h-428v-307h315v145h307v-432h-1153zM317 1579v287h269v-287h-269zM817 1579v287h268v-287h-268z" />
<glyph unicode="&#xcc;" horiz-adv-x="894" d="M33 1866h362l238 -307h-291zM100 0v266h164v932h-164v266h695v-266h-164v-932h164v-266h-695z" />
<glyph unicode="&#xcd;" horiz-adv-x="894" d="M100 0v266h164v932h-164v266h695v-266h-164v-932h164v-266h-695zM264 1559l238 307h362l-309 -307h-291z" />
<glyph unicode="&#xce;" horiz-adv-x="894" d="M74 1559l202 307h345l202 -307h-276l-96 167h-5l-96 -167h-276zM100 0v266h164v932h-164v266h695v-266h-164v-932h164v-266h-695z" />
<glyph unicode="&#xcf;" horiz-adv-x="894" d="M66 1579v287h268v-287h-268zM100 0v266h164v932h-164v266h695v-266h-164v-932h164v-266h-695zM565 1579v287h269v-287h-269z" />
<glyph unicode="&#xd0;" horiz-adv-x="1626" d="M100 0v266h164v316h-143v286h143v330h-164v266h688q352 0 556 -193.5t204 -535.5q0 -344 -204.5 -539.5t-555.5 -195.5h-688zM631 287h143q186 0 290.5 115.5t104.5 332.5q0 213 -106.5 328t-288.5 115h-143v-310h233v-286h-233v-295z" />
<glyph unicode="&#xd1;" horiz-adv-x="1759" d="M100 0v266h164v932h-164v266h535l459 -776q35 -59 61 -149h8q-12 98 -12 163v496h-172v266h702v-266h-163v-1198h-369l-461 772q-35 59 -61 150h-9q12 -98 13 -164v-492h172v-266h-703zM473 1559q0 313 262 313q59 0 106.5 -31t84.5 -61.5t67 -30.5q76 0 76 117h229 q0 -313 -262 -314q-59 0 -106 31t-84 61.5t-68 30.5q-76 0 -76 -116h-229z" />
<glyph unicode="&#xd2;" d="M70 741q0 317 219 532.5t550.5 215.5t551 -215t219.5 -533q0 -326 -219.5 -546t-551 -220t-550.5 220t-219 546zM424 1866h362l238 -307h-291zM449 741q0 -190 114.5 -319t276 -129t276.5 129t115 319q0 182 -115 306t-276.5 124t-276 -124t-114.5 -306z" />
<glyph unicode="&#xd3;" d="M70 741q0 317 219 532.5t550.5 215.5t551 -215t219.5 -533q0 -326 -219.5 -546t-551 -220t-550.5 220t-219 546zM449 741q0 -190 114.5 -319t276 -129t276.5 129t115 319q0 182 -115 306t-276.5 124t-276 -124t-114.5 -306zM655 1559l238 307h362l-309 -307h-291z" />
<glyph unicode="&#xd4;" d="M70 741q0 317 219 532.5t550.5 215.5t551 -215t219.5 -533q0 -326 -219.5 -546t-551 -220t-550.5 220t-219 546zM449 741q0 -190 114.5 -319t276 -129t276.5 129t115 319q0 182 -115 306t-276.5 124t-276 -124t-114.5 -306zM465 1559l203 307h344l202 -307h-276l-96 167 h-4l-97 -167h-276z" />
<glyph unicode="&#xd5;" d="M70 741q0 317 219 532.5t550.5 215.5t551 -215t219.5 -533q0 -326 -219.5 -546t-551 -220t-550.5 220t-219 546zM428 1559q0 313 262 313q59 0 106.5 -31t84.5 -61.5t67 -30.5q76 0 76 117h229q0 -313 -262 -314q-59 0 -106 31t-84 61.5t-68 30.5q-76 0 -76 -116h-229z M449 741q0 -190 114.5 -319t276 -129t276.5 129t115 319q0 182 -115 306t-276.5 124t-276 -124t-114.5 -306z" />
<glyph unicode="&#xd6;" d="M70 741q0 317 219 532.5t550.5 215.5t551 -215t219.5 -533q0 -326 -219.5 -546t-551 -220t-550.5 220t-219 546zM449 741q0 -190 114.5 -319t276 -129t276.5 129t115 319q0 182 -115 306t-276.5 124t-276 -124t-114.5 -306zM457 1579v287h268v-287h-268zM956 1579v287 h269v-287h-269z" />
<glyph unicode="&#xd7;" horiz-adv-x="1290" d="M88 188l373 400l-373 401l188 189l367 -394l369 394l188 -189l-375 -401l375 -400l-188 -188l-369 393l-367 -393z" />
<glyph unicode="&#xd8;" horiz-adv-x="1671" d="M70 741q0 317 218 532.5t548 215.5q201 0 360 -82l84 115l143 -97l-82 -112q260 -221 261 -572q0 -326 -218.5 -546t-547.5 -220q-215 0 -390 99l-94 -131l-143 98l98 135q-237 221 -237 565zM440 741q0 -158 80 -270l475 655q-76 35 -159 35q-166 0 -281 -120t-115 -300 zM647 352q88 -49 189 -49q166 0 280.5 125t114.5 313q0 166 -98 281z" />
<glyph unicode="&#xd9;" d="M55 1198v266h695v-266h-164v-639q0 -98 37 -162q61 -104 219 -104q147 0 213 102q39 63 39 164v639h-164v266h694v-266h-164v-639q0 -231 -121 -381q-82 -100 -215 -151.5t-284 -51.5q-156 0 -287 52.5t-211 144.5q-123 141 -123 387v639h-164zM424 1866h362l238 -307 h-291z" />
<glyph unicode="&#xda;" d="M55 1198v266h695v-266h-164v-639q0 -98 37 -162q61 -104 219 -104q147 0 213 102q39 63 39 164v639h-164v266h694v-266h-164v-639q0 -231 -121 -381q-82 -100 -215 -151.5t-284 -51.5q-156 0 -287 52.5t-211 144.5q-123 141 -123 387v639h-164zM655 1559l238 307h362 l-309 -307h-291z" />
<glyph unicode="&#xdb;" d="M55 1198v266h695v-266h-164v-639q0 -98 37 -162q61 -104 219 -104q147 0 213 102q39 63 39 164v639h-164v266h694v-266h-164v-639q0 -231 -121 -381q-82 -100 -215 -151.5t-284 -51.5q-156 0 -287 52.5t-211 144.5q-123 141 -123 387v639h-164zM465 1559l203 307h344 l202 -307h-276l-96 167h-4l-97 -167h-276z" />
<glyph unicode="&#xdc;" d="M55 1198v266h695v-266h-164v-639q0 -98 37 -162q61 -104 219 -104q147 0 213 102q39 63 39 164v639h-164v266h694v-266h-164v-639q0 -231 -121 -381q-82 -100 -215 -151.5t-284 -51.5q-156 0 -287 52.5t-211 144.5q-123 141 -123 387v639h-164zM457 1579v287h268v-287 h-268zM956 1579v287h269v-287h-269z" />
<glyph unicode="&#xdd;" horiz-adv-x="1374" d="M20 1198v266h607v-266h-123l149 -270l33 -72h4q10 31 33 72l149 270h-122v266h604v-266h-125l-359 -598v-334h164v-266h-694v266h164v334l-359 598h-125zM508 1559l237 307h363l-309 -307h-291z" />
<glyph unicode="&#xde;" horiz-adv-x="1376" d="M100 0v266h164v932h-164v266h695v-266h-172v-94h286q211 0 326 -96.5t115 -264.5q0 -174 -115 -274t-326 -100h-286v-103h172v-266h-695zM623 635h190q92 0 132 26.5t40 81.5q0 51 -38 73t-128 22h-196v-203z" />
<glyph unicode="&#xdf;" horiz-adv-x="1361" d="M57 0v256h133v823q0 193 154 301.5t369 108.5q193 0 333 -111.5t140 -283.5q0 -70 -37 -128.5t-74 -106.5t-37 -93q0 -33 43 -73t94.5 -77.5t94.5 -110.5t43 -161q0 -172 -115 -265t-283 -93q-80 0 -143 11t-88 21l-22 11v290q94 -39 194 -38q102 0 102 86q0 31 -43 69.5 t-95 75.5t-95 102.5t-43 143.5q0 63 37 122.5t73.5 110.5t36.5 94q0 49 -33.5 79t-93.5 30q-158 0 -157 -139v-1055h-488z" />
<glyph unicode="&#xe0;" horiz-adv-x="1193" d="M47 301q0 109 62.5 184.5t161 109.5t180 47t159.5 13h64v31q0 117 -150 117q-63 0 -136 -24.5t-114 -49.5l-41 -27l-122 240l21 15.5t58.5 33t94.5 42t123.5 32.5t148.5 14q229 0 350 -110.5t121 -319.5v-348q0 -45 45 -45h78v-256h-305q-72 0 -106.5 33t-34.5 78v6l4 33 h-4q-4 -6 -11.5 -18.5t-34 -42.5t-59.5 -53.5t-88 -42t-119 -18.5q-145 0 -245.5 86t-100.5 240zM156 1464h362l238 -307h-291zM403 326q0 -41 26 -68t69 -27q66 0 123 65.5t57 135.5v25h-33q-98 0 -170 -32.5t-72 -98.5z" />
<glyph unicode="&#xe1;" horiz-adv-x="1193" d="M47 301q0 109 62.5 184.5t161 109.5t180 47t159.5 13h64v31q0 117 -150 117q-63 0 -136 -24.5t-114 -49.5l-41 -27l-122 240l21 15.5t58.5 33t94.5 42t123.5 32.5t148.5 14q229 0 350 -110.5t121 -319.5v-348q0 -45 45 -45h78v-256h-305q-72 0 -106.5 33t-34.5 78v6l4 33 h-4q-4 -6 -11.5 -18.5t-34 -42.5t-59.5 -53.5t-88 -42t-119 -18.5q-145 0 -245.5 86t-100.5 240zM387 1157l238 307h362l-309 -307h-291zM403 326q0 -41 26 -68t69 -27q66 0 123 65.5t57 135.5v25h-33q-98 0 -170 -32.5t-72 -98.5z" />
<glyph unicode="&#xe2;" horiz-adv-x="1193" d="M47 301q0 109 62.5 184.5t161 109.5t180 47t159.5 13h64v31q0 117 -150 117q-63 0 -136 -24.5t-114 -49.5l-41 -27l-122 240l21 15.5t58.5 33t94.5 42t123.5 32.5t148.5 14q229 0 350 -110.5t121 -319.5v-348q0 -45 45 -45h78v-256h-305q-72 0 -106.5 33t-34.5 78v6l4 33 h-4q-4 -6 -11.5 -18.5t-34 -42.5t-59.5 -53.5t-88 -42t-119 -18.5q-145 0 -245.5 86t-100.5 240zM197 1157l202 307h344l203 -307h-276l-97 168h-4l-96 -168h-276zM403 326q0 -41 26 -68t69 -27q66 0 123 65.5t57 135.5v25h-33q-98 0 -170 -32.5t-72 -98.5z" />
<glyph unicode="&#xe3;" horiz-adv-x="1193" d="M47 301q0 109 62.5 184.5t161 109.5t180 47t159.5 13h64v31q0 117 -150 117q-63 0 -136 -24.5t-114 -49.5l-41 -27l-122 240l21 15.5t58.5 33t94.5 42t123.5 32.5t148.5 14q229 0 350 -110.5t121 -319.5v-348q0 -45 45 -45h78v-256h-305q-72 0 -106.5 33t-34.5 78v6l4 33 h-4q-4 -6 -11.5 -18.5t-34 -42.5t-59.5 -53.5t-88 -42t-119 -18.5q-145 0 -245.5 86t-100.5 240zM160 1157q0 313 262 313q59 0 106 -30.5t84 -61t68 -30.5q76 0 76 116h229q0 -313 -262 -313q-59 0 -106.5 30.5t-84 61.5t-67.5 31q-76 0 -76 -117h-229zM403 326 q0 -41 26 -68t69 -27q66 0 123 65.5t57 135.5v25h-33q-98 0 -170 -32.5t-72 -98.5z" />
<glyph unicode="&#xe4;" horiz-adv-x="1193" d="M47 301q0 109 62.5 184.5t161 109.5t180 47t159.5 13h64v31q0 117 -150 117q-63 0 -136 -24.5t-114 -49.5l-41 -27l-122 240l21 15.5t58.5 33t94.5 42t123.5 32.5t148.5 14q229 0 350 -110.5t121 -319.5v-348q0 -45 45 -45h78v-256h-305q-72 0 -106.5 33t-34.5 78v6l4 33 h-4q-4 -6 -11.5 -18.5t-34 -42.5t-59.5 -53.5t-88 -42t-119 -18.5q-145 0 -245.5 86t-100.5 240zM188 1178v286h269v-286h-269zM403 326q0 -41 26 -68t69 -27q66 0 123 65.5t57 135.5v25h-33q-98 0 -170 -32.5t-72 -98.5zM688 1178v286h268v-286h-268z" />
<glyph unicode="&#xe5;" horiz-adv-x="1193" d="M47 301q0 109 62.5 184.5t161 109.5t180 47t159.5 13h64v31q0 117 -150 117q-63 0 -136 -24.5t-114 -49.5l-41 -27l-122 240l21 15.5t58.5 33t94.5 42t123.5 32.5t148.5 14q229 0 350 -110.5t121 -319.5v-348q0 -45 45 -45h78v-256h-305q-72 0 -106.5 33t-34.5 78v6l4 33 h-4q-4 -6 -11.5 -18.5t-34 -42.5t-59.5 -53.5t-88 -42t-119 -18.5q-145 0 -245.5 86t-100.5 240zM332 1315q0 92 71.5 141t168 49t170 -49t73.5 -141q0 -90 -72.5 -138.5t-171.5 -48.5q-96 0 -167.5 48.5t-71.5 138.5zM403 326q0 -41 26 -68t69 -27q66 0 123 65.5t57 135.5 v25h-33q-98 0 -170 -32.5t-72 -98.5zM498 1315q0 -35 20.5 -55.5t52.5 -20.5q35 0 56.5 20.5t21.5 55.5q0 37 -21.5 58.5t-56.5 21.5q-33 0 -53 -21.5t-20 -58.5z" />
<glyph unicode="&#xe6;" horiz-adv-x="1738" d="M43 311q0 88 47 154.5t113.5 101.5t157 56.5t157 26.5t133.5 5h19v21q0 74 -37 100.5t-107 26.5q-63 0 -138 -24.5t-118 -49.5l-41 -27l-123 240q20 16 59.5 39t157 60.5t236.5 37.5q205 0 315 -104h5q127 104 315 104q221 0 354 -146.5t133 -373.5l-8 -100h-665 q18 -100 85.5 -149.5t159.5 -49.5q68 0 140.5 25.5t111.5 52.5l39 27l131 -236q-18 -16 -54 -42t-153.5 -69t-242.5 -43q-272 0 -424 185h-4q-33 -59 -133.5 -121t-262.5 -62q-152 0 -255 91t-103 243zM389 326q0 -39 26.5 -63.5t71.5 -24.5q72 0 129.5 62t57.5 132v25h-33 q-100 0 -176 -32.5t-76 -98.5zM1016 655h309q0 59 -38 108.5t-93 49.5q-141 0 -178 -158z" />
<glyph unicode="&#xe7;" horiz-adv-x="1161" d="M51 524q0 233 163 394t415 161q115 0 215 -25.5t175 -88t75 -154.5v-168h-301v64q0 37 -43 57t-107 20q-119 0 -177 -67.5t-58 -179.5q0 -133 74.5 -201t191.5 -68q170 0 317 117l119 -248q-80 -74 -198.5 -115.5t-243.5 -46.5l-27 -77q84 -4 139.5 -50.5t55.5 -126.5 q0 -100 -84 -150t-201 -50l-141 18v154q43 -16 100 -17q98 0 98 54q0 57 -114 57h-52l66 203q-199 41 -328 182t-129 352z" />
<glyph unicode="&#xe8;" horiz-adv-x="1150" d="M51 528q0 238 149.5 394.5t399.5 156.5q231 0 361.5 -142t130.5 -368l-9 -106h-669q18 -96 86.5 -145.5t158.5 -49.5q70 0 144 25.5t115 50.5l38 25l129 -246q-18 -16 -55 -41t-154.5 -66t-244.5 -41q-268 0 -424 164t-156 389zM180 1464h363l237 -307h-291zM422 657h303 q0 63 -38 109.5t-95 46.5q-135 0 -170 -156z" />
<glyph unicode="&#xe9;" horiz-adv-x="1150" d="M51 528q0 238 149.5 394.5t399.5 156.5q231 0 361.5 -142t130.5 -368l-9 -106h-669q18 -96 86.5 -145.5t158.5 -49.5q70 0 144 25.5t115 50.5l38 25l129 -246q-18 -16 -55 -41t-154.5 -66t-244.5 -41q-268 0 -424 164t-156 389zM412 1157l237 307h363l-310 -307h-290z M422 657h303q0 63 -38 109.5t-95 46.5q-135 0 -170 -156z" />
<glyph unicode="&#xea;" horiz-adv-x="1150" d="M51 528q0 238 149.5 394.5t399.5 156.5q231 0 361.5 -142t130.5 -368l-9 -106h-669q18 -96 86.5 -145.5t158.5 -49.5q70 0 144 25.5t115 50.5l38 25l129 -246q-18 -16 -55 -41t-154.5 -66t-244.5 -41q-268 0 -424 164t-156 389zM221 1157l203 307h344l203 -307h-277 l-96 168h-4l-96 -168h-277zM422 657h303q0 63 -38 109.5t-95 46.5q-135 0 -170 -156z" />
<glyph unicode="&#xeb;" horiz-adv-x="1150" d="M51 528q0 238 149.5 394.5t399.5 156.5q231 0 361.5 -142t130.5 -368l-9 -106h-669q18 -96 86.5 -145.5t158.5 -49.5q70 0 144 25.5t115 50.5l38 25l129 -246q-18 -16 -55 -41t-154.5 -66t-244.5 -41q-268 0 -424 164t-156 389zM213 1178v286h268v-286h-268zM422 657h303 q0 63 -38 109.5t-95 46.5q-135 0 -170 -156zM713 1178v286h268v-286h-268z" />
<glyph unicode="&#xec;" horiz-adv-x="763" d="M-23 1464h363l238 -307h-291zM76 799v256h497v-799h134v-256h-621v256h133v543h-143z" />
<glyph unicode="&#xed;" horiz-adv-x="763" d="M76 799v256h497v-799h134v-256h-621v256h133v543h-143zM209 1157l237 307h363l-309 -307h-291z" />
<glyph unicode="&#xee;" horiz-adv-x="763" d="M18 1157l203 307h344l203 -307h-276l-97 168h-4l-96 -168h-277zM76 799v256h497v-799h134v-256h-621v256h133v543h-143z" />
<glyph unicode="&#xef;" horiz-adv-x="763" d="M31 1178v286h268v-286h-268zM76 799v256h497v-799h134v-256h-621v256h133v543h-143zM469 1178v286h268v-286h-268z" />
<glyph unicode="&#xf0;" horiz-adv-x="1210" d="M53 494q0 186 130 321t343 135l142 -18h4q-59 90 -154 143l-383 -155v153l215 88q-137 57 -221 74l98 276q279 -59 502 -194l303 129v-154l-176 -75q270 -260 270 -637q0 -88 -17 -171t-59 -163t-103.5 -139.5t-158 -95.5t-215.5 -36q-238 0 -379 154t-141 365zM410 483 q0 -90 41 -151.5t129 -61.5q98 0 144 71t46 171q0 76 -45 122t-125 46q-92 0 -141 -56.5t-49 -140.5z" />
<glyph unicode="&#xf1;" horiz-adv-x="1449" d="M76 799v256h336q72 0 108.5 -32t36.5 -87v-35l-2 -24h4l11 21q7 13 38 49t68 62.5t102.5 48t139.5 21.5q356 0 356 -395v-428h133v-256h-487v618q0 139 -119 140q-111 0 -169.5 -94.5t-58.5 -217.5v-190h134v-256h-621v256h133v498q0 45 -45 45h-98zM342 1157 q0 313 262 313q59 0 106.5 -30.5t84 -61t67.5 -30.5q76 0 76 116h229q0 -313 -262 -313q-59 0 -106 30.5t-84 61.5t-68 31q-76 0 -76 -117h-229z" />
<glyph unicode="&#xf2;" horiz-adv-x="1298" d="M51 524.5q0 243.5 172 399t424 155.5q254 0 427 -154.5t173 -400.5q0 -244 -172 -396.5t-426 -152.5t-426 153t-172 396.5zM233 1464h363l238 -307h-291zM410 524q0 -115 69.5 -184.5t170 -69.5t170 70t69.5 184q0 117 -69.5 188.5t-170 71.5t-170 -71.5t-69.5 -188.5z " />
<glyph unicode="&#xf3;" horiz-adv-x="1298" d="M51 524.5q0 243.5 172 399t424 155.5q254 0 427 -154.5t173 -400.5q0 -244 -172 -396.5t-426 -152.5t-426 153t-172 396.5zM410 524q0 -115 69.5 -184.5t170 -69.5t170 70t69.5 184q0 117 -69.5 188.5t-170 71.5t-170 -71.5t-69.5 -188.5zM465 1157l237 307h363 l-309 -307h-291z" />
<glyph unicode="&#xf4;" horiz-adv-x="1298" d="M51 524.5q0 243.5 172 399t424 155.5q254 0 427 -154.5t173 -400.5q0 -244 -172 -396.5t-426 -152.5t-426 153t-172 396.5zM274 1157l203 307h344l203 -307h-276l-97 168h-4l-96 -168h-277zM410 524q0 -115 69.5 -184.5t170 -69.5t170 70t69.5 184q0 117 -69.5 188.5 t-170 71.5t-170 -71.5t-69.5 -188.5z" />
<glyph unicode="&#xf5;" horiz-adv-x="1298" d="M51 524.5q0 243.5 172 399t424 155.5q254 0 427 -154.5t173 -400.5q0 -244 -172 -396.5t-426 -152.5t-426 153t-172 396.5zM238 1157q0 313 262 313q59 0 106 -30.5t84 -61t68 -30.5q76 0 76 116h229q0 -313 -262 -313q-59 0 -106.5 30.5t-84.5 61.5t-67 31 q-76 0 -76 -117h-229zM410 524q0 -115 69.5 -184.5t170 -69.5t170 70t69.5 184q0 117 -69.5 188.5t-170 71.5t-170 -71.5t-69.5 -188.5z" />
<glyph unicode="&#xf6;" horiz-adv-x="1298" d="M51 524.5q0 243.5 172 399t424 155.5q254 0 427 -154.5t173 -400.5q0 -244 -172 -396.5t-426 -152.5t-426 153t-172 396.5zM266 1178v286h269v-286h-269zM410 524q0 -115 69.5 -184.5t170 -69.5t170 70t69.5 184q0 117 -69.5 188.5t-170 71.5t-170 -71.5t-69.5 -188.5z M766 1178v286h268v-286h-268z" />
<glyph unicode="&#xf7;" horiz-adv-x="1290" d="M86 455v266h1118v-266h-1118zM496 0v276h299v-276h-299zM496 901v277h299v-277h-299z" />
<glyph unicode="&#xf8;" horiz-adv-x="1296" d="M51 524q0 244 172 399.5t424 155.5q139 0 275 -57l86 119l122 -84l-81 -113q199 -164 198 -420q0 -244 -172 -396.5t-426 -152.5q-133 0 -260 52l-90 -125l-123 86l80 112q-205 160 -205 424zM410 524q0 -78 45 -149l282 391q-59 18 -88 18q-100 0 -169.5 -71.5 t-69.5 -188.5zM573 283q45 -12 76 -13q100 0 170 70t70 184q0 68 -39 142z" />
<glyph unicode="&#xf9;" horiz-adv-x="1421" d="M43 799v256h498v-629q0 -139 116 -139q100 0 160 97t60 224v191h-144v256h498v-754q0 -45 45 -45h88v-256h-326q-72 0 -108.5 31.5t-36.5 87.5v28l2 31h-4l-11 -21q-7 -13 -37 -49t-67 -63t-102.5 -48.5t-141.5 -21.5q-154 0 -250 93.5t-96 302.5v428h-143zM260 1464h363 l237 -307h-291z" />
<glyph unicode="&#xfa;" horiz-adv-x="1421" d="M43 799v256h498v-629q0 -139 116 -139q100 0 160 97t60 224v191h-144v256h498v-754q0 -45 45 -45h88v-256h-326q-72 0 -108.5 31.5t-36.5 87.5v28l2 31h-4l-11 -21q-7 -13 -37 -49t-67 -63t-102.5 -48.5t-141.5 -21.5q-154 0 -250 93.5t-96 302.5v428h-143zM492 1157 l237 307h363l-310 -307h-290z" />
<glyph unicode="&#xfb;" horiz-adv-x="1421" d="M43 799v256h498v-629q0 -139 116 -139q100 0 160 97t60 224v191h-144v256h498v-754q0 -45 45 -45h88v-256h-326q-72 0 -108.5 31.5t-36.5 87.5v28l2 31h-4l-11 -21q-7 -13 -37 -49t-67 -63t-102.5 -48.5t-141.5 -21.5q-154 0 -250 93.5t-96 302.5v428h-143zM301 1157 l203 307h344l203 -307h-277l-96 168h-4l-96 -168h-277z" />
<glyph unicode="&#xfc;" horiz-adv-x="1421" d="M43 799v256h498v-629q0 -139 116 -139q100 0 160 97t60 224v191h-144v256h498v-754q0 -45 45 -45h88v-256h-326q-72 0 -108.5 31.5t-36.5 87.5v28l2 31h-4l-11 -21q-7 -13 -37 -49t-67 -63t-102.5 -48.5t-141.5 -21.5q-154 0 -250 93.5t-96 302.5v428h-143zM293 1178v286 h268v-286h-268zM793 1178v286h268v-286h-268z" />
<glyph unicode="&#xfd;" horiz-adv-x="1284" d="M18 799v256h580v-256h-102l129 -391q8 -29 14 -63t8 -54l2 -21h8q10 74 33 138l125 391h-96v256h547v-256h-109l-340 -891q-129 -338 -491 -338q-82 0 -157 20.5t-110 40.5l-34 21l108 252q61 -49 174 -49q137 0 174 86l4 10l-348 848h-119zM465 1157l237 307h363 l-309 -307h-291z" />
<glyph unicode="&#xfe;" horiz-adv-x="1310" d="M0 1208v256h500v-413l-4 -90h4q8 12 27.5 32.5t90 53t156.5 32.5q215 0 349 -156.5t134 -394t-134 -395.5t-349 -158q-178 0 -268 101l-6 8h-4q4 -37 4 -90v-148h133v-256h-621v256h133v1362h-145zM489 526q0 -256 213 -256q90 0 144.5 75t54.5 183.5t-54 182t-145 73.5 q-213 0 -213 -258z" />
<glyph unicode="&#xff;" horiz-adv-x="1284" d="M18 799v256h580v-256h-102l129 -391q8 -29 14 -63t8 -54l2 -21h8q10 74 33 138l125 391h-96v256h547v-256h-109l-340 -891q-129 -338 -491 -338q-82 0 -157 20.5t-110 40.5l-34 21l108 252q61 -49 174 -49q137 0 174 86l4 10l-348 848h-119zM266 1178v286h269v-286h-269z M766 1178v286h268v-286h-268z" />
<glyph unicode="&#x152;" horiz-adv-x="2074" d="M66 735.5q0 313.5 230 529.5t556 216q76 0 153.5 -8.5t116.5 -8.5h832v-432h-287v146h-301v-299h418v-285h-418v-307h326v145h286v-432h-856q-39 0 -116.5 -8t-153.5 -8q-326 0 -556 219t-230 532.5zM436 735q0 -190 121 -323t295 -133q41 0 78 4t53 8l16 2v878 q-57 14 -147 15q-174 0 -295 -131.5t-121 -319.5z" />
<glyph unicode="&#x153;" horiz-adv-x="1980" d="M51 524.5q0 243.5 168 399t416 155.5q139 0 232.5 -42t174.5 -122h5q72 80 159.5 122t229.5 42q227 0 357 -142t130 -368l-8 -110h-664q18 -94 87 -146.5t157 -52.5q68 0 140.5 26.5t111.5 53.5l39 27l131 -238q-18 -16 -54 -42t-154 -69t-243 -43q-150 0 -243 45.5 t-168 129.5h-4q-82 -84 -177.5 -129.5t-236.5 -45.5q-250 0 -418 153t-168 396.5zM408 524q0 -115 69.5 -184.5t170 -69.5t170 70t69.5 184q0 117 -69.5 188.5t-170 71.5t-170 -71.5t-69.5 -188.5zM1257 655h310q-2 59 -40 108.5t-95 49.5q-140 0 -175 -158z" />
<glyph unicode="&#x178;" horiz-adv-x="1374" d="M20 1198v266h607v-266h-123l149 -270l33 -72h4q10 31 33 72l149 270h-122v266h604v-266h-125l-359 -598v-334h164v-266h-694v266h164v334l-359 598h-125zM309 1579v287h269v-287h-269zM809 1579v287h268v-287h-268z" />
<glyph unicode="&#x2c6;" horiz-adv-x="995" d="M123 1559l203 307h344l202 -307h-276l-96 167h-4l-97 -167h-276z" />
<glyph unicode="&#x2dc;" horiz-adv-x="993" d="M84 1559q0 313 262 313q59 0 106.5 -31t84 -61.5t67.5 -30.5q76 0 76 117h229q0 -313 -262 -314q-59 0 -106 31t-84 61.5t-68 30.5q-76 0 -76 -116h-229z" />
<glyph unicode="&#x2000;" horiz-adv-x="953" />
<glyph unicode="&#x2001;" horiz-adv-x="1907" />
<glyph unicode="&#x2002;" horiz-adv-x="953" />
<glyph unicode="&#x2003;" horiz-adv-x="1907" />
<glyph unicode="&#x2004;" horiz-adv-x="635" />
<glyph unicode="&#x2005;" horiz-adv-x="476" />
<glyph unicode="&#x2006;" horiz-adv-x="317" />
<glyph unicode="&#x2007;" horiz-adv-x="317" />
<glyph unicode="&#x2008;" horiz-adv-x="238" />
<glyph unicode="&#x2009;" horiz-adv-x="381" />
<glyph unicode="&#x200a;" horiz-adv-x="105" />
<glyph unicode="&#x2010;" horiz-adv-x="925" d="M141 434v307h643v-307h-643z" />
<glyph unicode="&#x2011;" horiz-adv-x="925" d="M141 434v307h643v-307h-643z" />
<glyph unicode="&#x2012;" horiz-adv-x="925" d="M141 434v307h643v-307h-643z" />
<glyph unicode="&#x2013;" horiz-adv-x="1511" d="M145 455v266h1221v-266h-1221z" />
<glyph unicode="&#x2014;" horiz-adv-x="1921" d="M145 455v266h1631v-266h-1631z" />
<glyph unicode="&#x2018;" horiz-adv-x="534" d="M63 973l183 522h239l-110 -522h-312z" />
<glyph unicode="&#x2019;" horiz-adv-x="516" d="M74 973l110 522h312l-183 -522h-239z" />
<glyph unicode="&#x201a;" horiz-adv-x="548" d="M45 -182l111 522h301l-183 -522h-229z" />
<glyph unicode="&#x201c;" horiz-adv-x="942" d="M63 973l183 522h241l-110 -522h-314zM469 973l182 522h242l-111 -522h-313z" />
<glyph unicode="&#x201d;" horiz-adv-x="923" d="M74 973l110 522h314l-183 -522h-241zM479 973l111 522h313l-182 -522h-242z" />
<glyph unicode="&#x201e;" horiz-adv-x="942" d="M45 -182l111 522h301l-183 -522h-229zM438 -182l111 522h301l-182 -522h-230z" />
<glyph unicode="&#x2022;" horiz-adv-x="942" d="M90 596q0 158 111.5 269.5t269.5 111.5t269.5 -111.5t111.5 -269.5t-111.5 -269.5t-269.5 -111.5t-269.5 111.5t-111.5 269.5z" />
<glyph unicode="&#x2026;" horiz-adv-x="1896" d="M123 0v336h323v-336h-323zM786 0v336h324v-336h-324zM1450 0v336h324v-336h-324z" />
<glyph unicode="&#x202f;" horiz-adv-x="381" />
<glyph unicode="&#x2039;" horiz-adv-x="802" d="M59 578l336 421h324l-336 -421l336 -420h-324z" />
<glyph unicode="&#x203a;" horiz-adv-x="802" d="M84 158l336 420l-336 421h324l335 -421l-335 -420h-324z" />
<glyph unicode="&#x205f;" horiz-adv-x="476" />
<glyph unicode="&#x20ac;" horiz-adv-x="1249" d="M72 475v187h114q-6 78 -2 139h-112v186h147q72 221 264.5 361.5t442.5 140.5q55 0 114.5 -7t92.5 -16l32 -6l-84 -303q-84 20 -166 21q-209 0 -311 -191h440l-40 -186h-447q-6 -63 4 -139h414l-41 -187h-307q51 -84 131 -133t174 -49q45 0 95 7t77 15l26 9l58 -308 q-113 -41 -262 -41q-258 0 -443.5 137.5t-259.5 362.5h-151z" />
<glyph unicode="&#x2122;" horiz-adv-x="2004" d="M43 1241v223h836v-223h-287v-692h-258v692h-291zM918 549l71 915h242l149 -358l27 -90h4q14 59 27 90l149 358h242l67 -915h-260l-20 356l2 66h-4l-105 -256h-200l-105 256h-4l2 -66l-24 -356h-260z" />
<glyph unicode="&#xe000;" horiz-adv-x="1055" d="M0 1055h1055v-1055h-1055v1055z" />
<glyph unicode="&#xfb01;" horiz-adv-x="1540" d="M76 799v256h143v43q0 98 34 173t83 114.5t116.5 64.5t122 32t111.5 7l125 -8v-279q-27 6 -86 6q-152 0 -152 -102v-51h783v-799h133v-256h-621v256h133v543h-428v-543h156v-256h-643v256h133v543h-143zM1006 1188v276h346v-276h-346z" />
<glyph unicode="&#xfb02;" horiz-adv-x="1529" d="M76 799v256h143v22q0 154 86 253.5t216 138t300 38.5q121 0 247 -16t194 -33l65 -16v-1032q0 -78 19.5 -107t78.5 -29l43 2v-280q-45 -6 -112 -6q-78 0 -137.5 13t-120 52t-93 123t-32.5 211v836q-76 18 -172 18q-227 0 -228 -158v-30h218v-256h-218v-543h156v-256h-643 v256h133v543h-143z" />
<glyph unicode="&#xfb03;" horiz-adv-x="2322" d="M76 799v256h143v43q0 98 34 173t83 114.5t116.5 64.5t122 32t111.5 7l125 -8v-279q-27 6 -86 6q-152 0 -152 -102v-51h428v43q0 98 34 173t83 114.5t117 64.5t122 32t111 7l125 -8v-279q-27 6 -86 6q-152 0 -151 -102v-51h782v-799h133v-256h-620v256h133v543h-428v-543 h155v-256h-643v256h133v543h-428v-543h156v-256h-643v256h133v543h-143zM1788 1188v276h346v-276h-346z" />
<glyph unicode="&#xfb04;" horiz-adv-x="2312" d="M76 799v256h143v43q0 98 34 173t83 114.5t116.5 64.5t122 32t111.5 7l125 -8v-279q-27 6 -86 6q-152 0 -152 -102v-51h428v22q0 154 86.5 253.5t216.5 138t300 38.5q121 0 246.5 -16t193.5 -33l65 -16v-1032q0 -78 19.5 -107t79.5 -29l43 2v-280q-45 -6 -113 -6 q-78 0 -137 13t-119.5 52t-93.5 123t-33 211v836q-76 18 -172 18q-227 0 -227 -158v-30h217v-256h-217v-543h155v-256h-643v256h133v543h-428v-543h156v-256h-643v256h133v543h-143z" />
</font>
</defs>
</svg>
